<?xml version="1.0" encoding="utf-8"?>
<!-- Generator: Adobe Illustrator 18.0.0, SVG Export Plug-In . SVG Version: 6.00 Build 0)  -->
<!DOCTYPE svg PUBLIC "-//W3C//DTD SVG 1.1//EN" "http://www.w3.org/Graphics/SVG/1.1/DTD/svg11.dtd">
<svg version="1.1" id="Layer_1" xmlns="http://www.w3.org/2000/svg" xmlns:xlink="http://www.w3.org/1999/xlink" x="0px" y="0px"
	 viewBox="0 0 504.7 113.3" enable-background="new 0 0 504.7 113.3" xml:space="preserve">
<g>
	<g>
		<rect x="247.4" y="83.8" fill="#FFFFFF" width="0.7" height="12.9"/>
		<path fill="#FFFFFF" d="M162.7,91.4c0,0.9-0.1,1.8-0.3,2.5c-0.2,0.7-0.6,1.3-1,1.8c-0.4,0.5-0.9,0.8-1.5,1.1
			c-0.6,0.2-1.3,0.4-2,0.4c-0.7,0-1.4-0.1-2.1-0.4l0.1-0.3c0,0,0-0.1,0.1-0.1c0,0,0.1-0.1,0.2-0.1c0.1,0,0.2,0,0.3,0.1
			s0.2,0.1,0.4,0.1c0.1,0,0.3,0.1,0.5,0.1c0.2,0,0.4,0,0.7,0c0.6,0,1.2-0.1,1.8-0.3c0.5-0.2,1-0.5,1.3-1c0.4-0.4,0.6-1,0.8-1.6
			c0.2-0.6,0.3-1.4,0.3-2.2v-7.7h0.7V91.4z"/>
		<path fill="#FFFFFF" d="M287,96.8l0.7-1.7h8.6l0.7,1.7h0.7l-5.4-12.9h-0.6l-5.4,12.9H287z M291.7,85.3c0-0.1,0.1-0.2,0.1-0.3
			c0-0.1,0.1-0.2,0.1-0.4c0,0.1,0.1,0.3,0.1,0.4c0,0.1,0.1,0.2,0.1,0.3l3.8,9.3h-8.2L291.7,85.3z"/>
		<path fill="#FFFFFF" d="M333,90.7c0.4,0.3,0.9,0.6,1.4,0.8c0.5,0.2,1,0.4,1.6,0.6c0.5,0.2,1.1,0.3,1.6,0.5c0.5,0.2,1,0.4,1.4,0.7
			c0.4,0.3,0.7,0.6,1,1c0.2,0.4,0.4,0.9,0.4,1.6c0,0.3-0.1,0.6-0.2,0.9h0.6c0.1-0.3,0.2-0.7,0.2-1c0-0.7-0.1-1.2-0.4-1.7
			c-0.2-0.5-0.6-0.8-1-1.1c-0.4-0.3-0.9-0.6-1.4-0.8c-0.5-0.2-1-0.4-1.6-0.6c-0.5-0.2-1.1-0.4-1.6-0.6c-0.5-0.2-1-0.4-1.4-0.7
			c-0.4-0.3-0.7-0.6-1-1c-0.2-0.4-0.4-0.9-0.4-1.5c0-0.5,0.1-0.9,0.3-1.4c0.2-0.4,0.4-0.8,0.8-1.1c0.3-0.3,0.8-0.6,1.3-0.8
			c0.5-0.2,1.1-0.3,1.7-0.3c0.6,0,1.2,0.1,1.6,0.2c0.4,0.2,0.8,0.3,1.1,0.5c0.3,0.2,0.5,0.4,0.6,0.5c0.2,0.2,0.3,0.2,0.4,0.2
			c0.1,0,0.2,0,0.2-0.1l0.1-0.3c-0.6-0.6-1.2-1-1.8-1.3c-0.6-0.3-1.4-0.4-2.2-0.4c-0.7,0-1.4,0.1-2,0.3c-0.6,0.2-1.1,0.5-1.4,0.9
			c-0.4,0.4-0.7,0.8-0.9,1.3c-0.2,0.5-0.3,1-0.3,1.6c0,0.7,0.1,1.3,0.4,1.7C332.3,90,332.6,90.4,333,90.7z"/>
		<path fill="#FFFFFF" d="M203.5,97.3c-3.9,0-7-3.2-7-7s3.2-7,7-7s7,3.2,7,7S207.4,97.3,203.5,97.3z M203.5,84
			c-3.5,0-6.3,2.8-6.3,6.3c0,3.5,2.8,6.3,6.3,6.3c3.5,0,6.3-2.8,6.3-6.3C209.8,86.8,207,84,203.5,84z"/>
		<path fill="#FFFFFF" d="M205.3,79.6v0.7h-3.6v-0.7H205.3z"/>
	</g>
	<g>
		<path fill="#FFFFFF" d="M143.9,19v13.2c0,8.6-6,14.4-13.6,14.4c-7.6,0-13.7-5.7-13.7-14.4V19h6.6v13.2c0,4.2,3,7.7,7.1,7.7
			c4.1,0,7.1-3.5,7.1-7.7V19H143.9z"/>
		<path fill="#FFFFFF" d="M184.9,32.3c0,7.4-6,13.5-13.4,13.5h-12.7V19h12.7C179.7,19,184.9,24.9,184.9,32.3z M178.5,32.3
			c0-4-3-6.9-6.4-6.9c-1.7,0-6.9,0-6.9,0v14h6.9C175.4,39.2,178.5,36.3,178.5,32.3z"/>
		<path fill="#FFFFFF" d="M205.5,19v26.8h-6.4V19H205.5z"/>
		<path fill="#FFFFFF" d="M382.1,19v26.8h-6.4l-13.4-16.1v16.1h-6.4V19h6.4l13.4,16.7V19H382.1z"/>
		<path fill="#FFFFFF" d="M422.5,40.8L422.5,40.8c-2.6,3.5-6.7,5.7-11.4,5.7c-7.8,0-14.2-6.3-14.2-14.1c0-7.8,6.4-14.2,14.2-14.2
			c4.7,0,8.5,1.9,11.1,5.5l-4.9,3.1c-1.7-1.5-3.5-2.4-6.2-2.4c-4.4,0-8,3.6-8,8s3.6,7.9,8,7.9c2.3,0,4.3-0.9,5.7-2.4V35h-8.1v-5.2
			h13.8V40.8z"/>
		<path fill="#FFFFFF" d="M294.4,37.7c2.8-1.5,4.8-4.3,4.8-8.2c0-5.9-4.1-10.6-9.6-10.6c-3.2,0-13,0-13,0v26.8h6.6V25.6h5.5
			c2.2,0,4,1.8,4,4c0,2.2-1.8,3.7-4,3.7h-15.2v5.9h14.5l4.4,6.7h8.1L294.4,37.7z"/>
		<polygon fill="#FFFFFF" points="235.9,19 231.1,19 224.3,32.7 224.3,32.7 217.7,45.8 225,45.8 230.1,45.8 227.6,40.4 233.3,28.2 
			241.6,45.8 248.8,45.8 		"/>
		<path fill="#FFFFFF" d="M27.9,38.5l-1.4-0.9c-2.1,1.8-3.8,2.7-6.5,2.7c-4.4,0-7.9-3.6-7.9-7.9s3.6-8,7.9-8c2.7,0,4.7,1.1,6.5,2.7
			l1.4-0.9v-5.6c-2.3-1.5-5-2.4-7.9-2.4c-7.8,0-14.1,6.4-14.1,14.2c0,7.8,6.3,14.1,14.1,14.1c2.9,0,5.7-0.9,7.9-2.4V38.5z"/>
		<polygon fill="#FFFFFF" points="490.8,39.3 479.4,39.3 479.4,19 472.9,19 472.9,45.8 490.8,45.8 		"/>
		<polygon fill="#FFFFFF" points="61.8,39.3 50.4,39.3 50.4,19 43.9,19 43.9,45.8 61.8,45.8 		"/>
		<polygon fill="#FFFFFF" points="330.8,19 325.9,19 319.1,32.7 319.1,32.7 312.5,45.8 319.8,45.8 324.9,45.8 322.4,40.4 
			328.1,28.2 336.5,45.8 343.6,45.8 		"/>
		<polygon fill="#FFFFFF" points="93.5,19 88.6,19 81.8,32.7 81.8,32.7 75.3,45.8 82.6,45.8 87.7,45.8 85.1,40.4 90.9,28.2 
			99.2,45.8 106.3,45.8 		"/>
		<g>
			<polygon fill="#FFFFFF" points="458.1,19 437.9,19 437.9,45.8 458.1,45.8 458.1,40.1 444.4,40.1 444.4,24.7 458.1,24.7 			"/>
			<polygon fill="#FFFFFF" points="448.4,35.3 448.5,35.3 454.1,35.3 454.1,29.5 448.5,29.5 448.4,29.5 			"/>
		</g>
	</g>
</g>
</svg>
